<svg xmlns="http://www.w3.org/2000/svg" width="100" height="100" viewBox="0 0 24 24" fill="none" stroke="dimgrey" stroke-width="1.5" stroke-linecap="round" stroke-linejoin="round"><path d="M9.5 2A2.5 2.5 0 0 1 12 4.5v0A2.5 2.5 0 0 1 9.5 7v0A2.5 2.5 0 0 0 7 9.5v0A2.5 2.5 0 0 0 9.5 12v0A2.5 2.5 0 0 1 12 14.5v0A2.5 2.5 0 0 1 9.5 17v0A2.5 2.5 0 0 0 7 19.5v0A2.5 2.5 0 0 0 9.5 22"></path><path d="M14.5 2A2.5 2.5 0 0 0 12 4.5v0A2.5 2.5 0 0 0 14.5 7v0A2.5 2.5 0 0 1 17 9.5v0A2.5 2.5 0 0 1 14.5 12v0A2.5 2.5 0 0 0 12 14.5v0A2.5 2.5 0 0 0 14.5 17v0A2.5 2.5 0 0 1 17 19.5v0A2.5 2.5 0 0 1 14.5 22"></path></svg>
